<svg width="776" height="213" viewBox="0 0 776 213" fill="none" xmlns="http://www.w3.org/2000/svg">
<path d="M62 128.164V68H77.971V113.959H120V129L62 128.164Z" fill="white" stroke="white"/>
<path d="M655 128.164V68H670.971V113.959H713V129L655 128.164Z" fill="white" stroke="white"/>
<path d="M142 129V68H199V83.0411H198.174H157.696V91.3973H189.913V106.438H157.696V113.959H199V129H142Z" fill="white" stroke="white"/>
<path fill-rule="evenodd" clip-rule="evenodd" d="M219 128H234.871L239.882 118.028H268.282L273.294 128H290L263.271 69H245.729L219 128ZM245.729 103.07L254.082 85.6197L262.435 103.07H245.729Z" fill="white" stroke="white"/>
<path fill-rule="evenodd" clip-rule="evenodd" d="M308 67V128.162V129H325.684V109.73H342.526L354.316 129H372L361.053 108.054C361.053 108.054 365.263 104.703 367.789 102.189C370.316 99.6757 370.316 98 370.316 98V89.6216V85.4324L369.474 81.2432C369.474 81.2432 368.632 76.2162 366.105 73.7027C363.579 71.1892 358.526 68.6757 358.526 68.6757L354.316 67H308ZM324.842 94.6486V82.0811H348.421C351.084 82.5319 352.147 83.1142 353.474 84.5946V92.1351C353.474 93.7654 352.178 93.9253 350.729 94.1042C349.944 94.2012 349.114 94.3037 348.421 94.6486H324.842Z" fill="white" stroke="white"/>
<path d="M395 129V68H411.579L441.421 104.767V68H458V129H440.592L411.579 93.0685V129H395Z" fill="white" stroke="white"/>
<path d="M536.697 69.8408V85.759C533.777 85.0204 530.768 84.6976 528.439 84.0834C526.11 83.4692 524.326 82.9059 520.181 82.4078C514.373 82.4228 512.478 82.4186 509.446 82.4078C509.446 82.4078 505.246 82.4481 502.84 82.4078C500.435 82.3675 499.668 83.0404 498.711 84.0834C497.754 85.1264 497.791 87.6136 497.886 87.4346C498.17 88.5191 498.614 89.1046 499.537 89.948C501.497 90.6606 502.752 91.0295 505.318 91.6236C507.707 91.8366 509.171 91.7147 511.924 91.6236C512.851 91.5301 515.172 91.6649 515.227 91.6236C516.759 91.6614 523.191 93.0187 524.242 93.2701C524.715 93.274 529.569 93.832 531.742 94.9747C534.211 96.2728 535.871 98.3259 536.697 99.1637C537.523 100.001 540 104.191 540 105.028L540 112.568C540 113.406 538.348 117.595 537.523 119.271C536.697 120.946 535.524 122.569 533.394 124.298L529.265 126.811L522.659 129.324L520.181 130.162L512.75 131L501.189 131C497.87 130.622 496.148 130.455 490.454 129.324C487.491 128.761 485.582 128.698 482.196 127.649V112.568C489.363 113.876 493.183 114.519 498.711 115.082C506.784 115.913 510.071 116.01 518.53 115.92C519.901 116.061 521.833 115.082 522.659 114.244C523.484 113.406 524.31 111.731 524.31 110.893C524.31 110.055 523.299 108.886 522.659 108.379C521.764 107.68 519.356 106.704 518.53 106.704C517.704 106.704 501.458 106.804 501.189 106.704C500.919 106.603 493.041 105.434 492.105 105.028C491.169 104.623 487.442 101.599 485.499 99.1637C483.783 97.1846 483.233 95.8422 482.196 93.2991C480.263 86.8785 480.98 84.3985 482.196 79.0566C482.914 76.1781 484.16 74.5777 486.325 72.3542C490.328 68.9077 493 68.2154 497.886 67.3275C507.387 66.8702 512.826 66.912 522.659 67.3275C528.684 67.8911 531.82 68.3928 536.697 69.8408Z" fill="white" stroke="white"/>
<path fill-rule="evenodd" clip-rule="evenodd" d="M583.264 68.0692C594.515 67.46 601.073 66.003 612.673 68.0692C615.049 68.7802 616.389 69.15 618.555 70.5883C620.603 71.7286 621.689 72.504 623.597 73.9471C625.362 75.3454 626.345 76.1409 627.799 78.1455C628.97 80.222 629.586 81.3633 630.319 83.1836L632 88.2218V109.214L630.319 114.252L627.799 119.29L623.597 122.649L618.555 126.847H616.875V130.206L625.278 141.962V147H609.312L599.229 130.206C596.105 130.439 593.347 130.206 590.826 130.206C588.305 130.206 587.241 130.456 584.944 130.206C582.227 129.067 580.585 128.333 577.382 126.847C575.704 126.398 574.781 126.042 573.18 125.168C571.897 124.39 571.159 123.817 569.819 122.649C568.807 121.493 568.242 120.828 567.298 119.29C566.347 117.341 565.806 116.243 564.777 114.252C563.804 112.621 563.493 111.457 563.097 109.214C563.077 101.12 562.889 97.474 563.097 88.2218C563.532 86.4047 563.855 85.3318 564.777 83.1836C565.741 81.3169 566.27 80.3286 567.298 78.1455C567.975 76.4808 568.507 75.5595 569.819 73.9471C571.481 72.5236 572.631 71.8056 574.861 70.5883C577.689 69.4022 579.427 68.8045 583.264 68.0692ZM604.271 81.5043C599.016 80.8822 596.07 80.7216 590.826 81.5043C588.71 81.7683 587.48 82.0103 584.944 83.1836L581.583 85.7027C580.031 86.9656 579.26 87.828 578.222 89.9012V106.695C578.274 107.547 578.158 107.462 579.902 109.214C581.647 110.966 580.202 109.94 582.423 111.733C583.934 113.1 584.021 113.342 585.784 114.252C586.556 114.877 587.668 115.251 589.986 115.932H606.86C607.176 116.228 609.172 115.397 610.993 114.252C612.814 113.108 612.75 113.036 614.354 111.733C615.717 110.108 616.285 109.024 616.875 106.695V89.9012C615.215 87.3489 614.306 86.9682 612.673 85.7027L609.312 83.1836C607.892 82.4067 606.696 82.0594 604.271 81.5043Z" fill="white" stroke="white"/>
</svg>
